# xmcd
#
# Track frame offsets: 
#        150
#        14809
#        26550
#        40487
#        56760
#        70701
#        85060
#        102890
#        119079
#        135184
#        149249
#        165218
#        180804
#        196900
#        214740
#        231523
#        247342
#        260482
#        278173
#        306587
#
# Disc length: 4466 seconds
#
# Revision: 0
# Processed by: cddbd v1.5.2PL0 Copyright (c) Steve Scherf et al.
# Submitted via: ExactAudioCopy v1.0b3
#
DISCID=2d117014
DTITLE=Various Artist - Trance The Vocal Session Vol. 08 - CD 1
DYEAR=1900
DGENRE=
TTITLE0=ATB - Believe In Me (Single Edit)
TTITLE1=DJ Jean - Every Single Day (Single Edit)
TTITLE2=Rocco - Counting The Days (Single Mix)
TTITLE3=Siria - Endless Summer (Single Mix)
TTITLE4=Kyau Vs. Albert - Northern Star (Album Edit)
TTITLE5=Armin Van Buuren - Shivers (Radio Edit)
TTITLE6=Megara Vs. DJ Lee - Musical Society (Rocco Vs. Bass-T Radio Mi
TTITLE6=x)
TTITLE7=4 Strings - Until You Love Me (Album Version)
TTITLE8=Ole Van Dansk Vs. Danny Age - Leave 2Day (Radio Edit)
TTITLE9=Brisby and Jingles - We All Love Disco (Central Seven Radio Mix)
TTITLE10=Aven - Making Me Fall
TTITLE11=Marc Et Claude - Free (Club Cut)
TTITLE12=Sven-R-G Vs. Bass-T - On A Party Trip
TTITLE13=Pulsedriver - Vagabonds (Album Version)
TTITLE14=Talla 2XLC Feat. Ely - The Air That I Breathe (Grey And Frost
TTITLE14=Short)
TTITLE15=Moulin Rouge - My Heart Is Beating Boom (Stagediverz Radio)
TTITLE16=Master Blaster - Hands Up (Radio Mix)
TTITLE17=Niels Van Gogh - Bombs Away (Short Cut)
TTITLE18=Di Fumetti - Where Is The Love (DJ Andy Garcia Mix)
TTITLE19=Mr. Sam - Lyteo (Rank 1 Remix)
EXTD=
EXTT0=
EXTT1=
EXTT2=
EXTT3=
EXTT4=
EXTT5=
EXTT6=
EXTT7=
EXTT8=
EXTT9=
EXTT10=
EXTT11=
EXTT12=
EXTT13=
EXTT14=
EXTT15=
EXTT16=
EXTT17=
EXTT18=
EXTT19=
PLAYORDER=
